# xmcd
#
# Track frame offsets:
#	150
#	16166
#	38748
#	56457
#	81886
#
# Disc length: 1300 seconds
#
# Revision: 0
# Processed by: cddbd v1.5.2PL0 Copyright (c) Steve Scherf et al.
# Submitted via: EasyCDDAExtractor 12.0.1.1
#
DISCID=2f051205
DTITLE=Laura - Destiny
DYEAR=1900
DGENRE=
TTITLE0=Destiny
TTITLE1=Destiny (Extended)
TTITLE2=Destiny (Club Mix)
TTITLE3=Destiny (Club Mix Extended)
TTITLE4=Destiny (Slo Motion Mix)
EXTD=
EXTT0=
EXTT1=
EXTT2=
EXTT3=
EXTT4=
PLAYORDER=
